<?xml version="1.0" encoding="UTF-8"?>
<svg version="1.1" xmlns="http://www.w3.org/2000/svg" width="2000" height="436">
<path d="M0 0 C2.5625 0.375 2.5625 0.375 4.25 1.875 C7.91489892 8.85575985 8.07346207 16.65334844 8.5625 24.375 C9.05878906 23.72273438 9.55507813 23.07046875 10.06640625 22.3984375 C20.57189374 8.8828388 20.57189374 8.8828388 26.875 7.8125 C29.5625 8.375 29.5625 8.375 31.5625 11.375 C32.33701035 20.16891957 28.27557015 26.83776709 22.890625 33.41796875 C19.07485942 37.52254228 14.88178098 40.51325166 9.5625 42.375 C8.5725 42.375 7.5825 42.375 6.5625 42.375 C5.9025 45.345 5.2425 48.315 4.5625 51.375 C5.14515625 50.86710937 5.7278125 50.35921875 6.328125 49.8359375 C13.07629932 44.17001755 20.77063228 37.99056082 29.796875 37.03125 C30.70953125 37.1446875 31.6221875 37.258125 32.5625 37.375 C34.59702331 40.42678497 35.0679243 41.7126693 34.41015625 45.28125 C31.1459167 53.34407211 23.57458852 58.47987245 16.140625 62.31640625 C10.58751016 64.59654886 5.47786791 64.46328907 -0.4375 64.375 C-2.9125 69.325 -2.9125 69.325 -5.4375 74.375 C-4.13039063 73.66923828 -4.13039063 73.66923828 -2.796875 72.94921875 C15.85418926 63.10735772 15.85418926 63.10735772 26.5625 65.375 C27.61690506 69.06541773 27.80830325 70.83870199 26.1875 74.375 C20.04595582 81.39390764 11.82556297 85.94797298 2.46875 86.5859375 C-2.09809621 86.64136039 -5.98773503 86.48744124 -10.4375 85.375 C-12.9125 89.335 -12.9125 89.335 -15.4375 93.375 C-14.035 92.88 -12.6325 92.385 -11.1875 91.875 C-5.43336639 90.29543391 0.07267061 90.03850304 6 90 C7.31436035 89.97969727 7.31436035 89.97969727 8.65527344 89.95898438 C14.92749653 90.00259195 14.92749653 90.00259195 18.16015625 91.8984375 C18.62292969 92.38570313 19.08570313 92.87296875 19.5625 93.375 C19.32057385 96.92325027 19.01434971 98.86484711 16.625 101.5625 C7.34142652 107.05685982 -3.29132582 107.82930913 -13.77734375 105.6953125 C-16.36374482 104.99628518 -18.90363978 104.24375207 -21.4375 103.375 C-23.9125 107.335 -23.9125 107.335 -26.4375 111.375 C-25.45652344 111.21386719 -24.47554687 111.05273438 -23.46484375 110.88671875 C-19.3010668 110.29518393 -15.20059541 110.19128091 -11 110.1875 C-10.28779297 110.17525391 -9.57558594 110.16300781 -8.84179688 110.15039062 C-2.81282585 110.13396291 3.31219918 110.4622443 8.0625 114.5 C8.805 115.428125 8.805 115.428125 9.5625 116.375 C8.28759667 120.30595192 7.21461941 122.35672348 3.5625 124.375 C-6.04262897 127.63388304 -16.15459656 127.60899604 -25.4375 123.375 C-27.8472006 122.12998802 -30.12615613 120.80114835 -32.4375 119.375 C-35.0775 123.005 -37.7175 126.635 -40.4375 130.375 C-38.99503906 130.13523438 -38.99503906 130.13523438 -37.5234375 129.890625 C-33.03544256 129.25431802 -28.59003963 129.15392997 -24.0625 129.125 C-22.86367188 129.0940625 -22.86367188 129.0940625 -21.640625 129.0625 C-15.79321504 129.02465269 -10.82038574 130.05392522 -5.4375 132.375 C-4.4375 133.375 -4.4375 133.375 -4 136.1875 C-4.4375 139.375 -4.4375 139.375 -6.875 141.625 C-16.41332005 146.31049055 -26.10978614 146.5677367 -36.13671875 143.30859375 C-39.26004596 142.04123347 -41.7149483 140.34884999 -44.4375 138.375 C-45.0975 138.375 -45.7575 138.375 -46.4375 138.375 C-48.22155386 140.34038392 -49.90201382 142.30985752 -51.5625 144.375 C-52.03042969 144.94734375 -52.49835938 145.5196875 -52.98046875 146.109375 C-54.13813224 147.52692213 -55.28850586 148.95041686 -56.4375 150.375 C-55.36435547 150.1584375 -55.36435547 150.1584375 -54.26953125 149.9375 C-43.62367669 147.95431364 -33.4683449 146.6546024 -23.4375 151.375 C-23.5625 154.625 -23.5625 154.625 -24.4375 158.375 C-30.66330769 163.73209034 -37.33743297 164.76155601 -45.25 164.75 C-46.04809082 164.75273926 -46.84618164 164.75547852 -47.66845703 164.75830078 C-53.01417402 164.66984254 -57.10258944 163.95623999 -61.7109375 161.0546875 C-63.47322055 160.14972675 -63.47322055 160.14972675 -65.4609375 161.03125 C-67.60609195 162.48961587 -69.05146259 163.99213591 -70.6875 166 C-71.20828125 166.63164062 -71.7290625 167.26328125 -72.265625 167.9140625 C-72.84570312 168.63722656 -72.84570312 168.63722656 -73.4375 169.375 C-72.31730469 169.21386719 -71.19710937 169.05273438 -70.04296875 168.88671875 C-65.27142948 168.29303461 -60.55384369 168.19129151 -55.75 168.1875 C-54.92177734 168.17525391 -54.09355469 168.16300781 -53.24023438 168.15039062 C-48.91537312 168.14000265 -45.29795116 168.17119914 -41.4375 170.375 C-40.375 172.6875 -40.375 172.6875 -40.4375 175.375 C-42.87884793 179.83311361 -45.82760487 181.24823836 -50.4375 182.796875 C-51.0975 182.98765625 -51.7575 183.1784375 -52.4375 183.375 C-53.05367187 183.55933594 -53.66984375 183.74367187 -54.3046875 183.93359375 C-63.38481473 185.81281422 -71.23292509 184.31889798 -79.4375 180.375 C-80.4275 180.045 -81.4175 179.715 -82.4375 179.375 C-85.0775 182.345 -87.7175 185.315 -90.4375 188.375 C-88.973125 188.21 -87.50875 188.045 -86 187.875 C-65.5746179 185.89557393 -65.5746179 185.89557393 -58.11328125 190.94921875 C-57.56027344 191.41972656 -57.00726563 191.89023438 -56.4375 192.375 C-56.5 195.125 -56.5 195.125 -57.4375 198.375 C-64.50402141 204.34435098 -73.72553999 203.97087239 -82.47119141 203.57177734 C-88.11241159 203.00723507 -92.80321744 200.46452171 -97.4375 197.375 C-99.0860816 199.16420471 -100.73143121 200.9562005 -102.375 202.75 C-102.84357422 203.25789062 -103.31214844 203.76578125 -103.79492188 204.2890625 C-106.41476768 207.11765854 -106.41476768 207.11765854 -108.4375 210.375 C-107.74527344 210.1584375 -107.05304688 209.941875 -106.33984375 209.71875 C-97.37386122 207.16716604 -86.80105057 205.00336199 -77.9921875 208.8984375 C-77.14914063 209.38570312 -76.30609375 209.87296875 -75.4375 210.375 C-75.125 213.125 -75.125 213.125 -75.4375 216.375 C-79.86247203 221.21481316 -86.36193279 223.43049445 -92.8046875 223.80859375 C-94.30712584 223.8309544 -95.81001964 223.83183279 -97.3125 223.8125 C-98.09608887 223.80927734 -98.87967773 223.80605469 -99.68701172 223.80273438 C-106.00413121 223.65111305 -110.78281785 222.29354563 -116.4375 219.375 C-119.4075 223.335 -122.3775 227.295 -125.4375 231.375 C-123.4575 230.715 -121.4775 230.055 -119.4375 229.375 C-101.57584054 226.56886498 -101.57584054 226.56886498 -95.15625 230.921875 C-94.5890625 231.40140625 -94.021875 231.8809375 -93.4375 232.375 C-93.67654497 235.88099285 -93.99724246 237.86136621 -96.3125 240.5625 C-104.12148256 245.09170989 -113.51655205 246.71103819 -122.4375 245.375 C-126.15272173 244.16292818 -129.79906767 242.79970198 -133.4375 241.375 C-156.13811378 271.94792743 -179.50689009 303.59766854 -195.4375 338.375 C-194.85484375 337.59898437 -194.2721875 336.82296875 -193.671875 336.0234375 C-179.67614449 317.51903474 -164.52714356 299.79356817 -145.4375 286.375 C-144.86064453 285.96443359 -144.28378906 285.55386719 -143.68945312 285.13085938 C-107.07714224 259.25179923 -61.0584603 248.02512221 -16.4375 249.375 C-20.24901726 251.67119297 -24.38874319 252.28202491 -28.69921875 253.07421875 C-30.38054692 253.39533921 -32.06177688 253.71697425 -33.74291992 254.0390625 C-34.62176849 254.20567383 -35.50061707 254.37228516 -36.40609741 254.54394531 C-86.97769291 264.1890639 -129.07850346 281.03157668 -166.83642578 316.86181641 C-167.86518461 317.83410174 -168.89958742 318.8004686 -169.94091797 319.75927734 C-190.9832229 339.14238283 -211.03667698 367.99867355 -220.20703125 395.28515625 C-221.4375 397.375 -221.4375 397.375 -224.07421875 398.18359375 C-225.24404297 398.27833984 -225.24404297 398.27833984 -226.4375 398.375 C-225.83871383 391.88814982 -223.79519453 386.15758962 -221.5625 380.0625 C-221.16683838 378.97380615 -220.77117676 377.8851123 -220.36352539 376.76342773 C-216.18836701 365.44034634 -211.5158278 354.34219646 -206.69824219 343.27978516 C-205.57716305 340.69678757 -204.47602157 338.10659461 -203.3828125 335.51171875 C-189.9512385 303.97926972 -170.77544271 274.11626046 -149.4375 247.375 C-147.93294482 245.48420834 -146.43015915 243.5920734 -144.93066406 241.69726562 C-143.96263336 240.47535636 -142.99084853 239.25640819 -142.01464844 238.04101562 C-138.63386825 234.03213636 -138.63386825 234.03213636 -136.4375 229.375 C-137.25332878 227.10525328 -137.25332878 227.10525328 -138.75 224.9375 C-143.40650699 217.60190679 -143.46804071 208.92931133 -141.90625 200.51171875 C-140.66904257 195.97305019 -139.56257938 192.04416901 -135.4375 189.375 C-132.875 188.8125 -132.875 188.8125 -130.4375 189.375 C-125.74321035 195.24286206 -126.30589341 202.05888932 -126.375 209.1875 C-126.37951172 210.07115234 -126.38402344 210.95480469 -126.38867188 211.86523438 C-126.40040134 214.03518559 -126.41833505 216.20510172 -126.4375 218.375 C-123.4675 215.075 -120.4975 211.775 -117.4375 208.375 C-118.17806641 206.96347656 -118.17806641 206.96347656 -118.93359375 205.5234375 C-119.58115932 204.2658464 -120.22827071 203.00802136 -120.875 201.75 C-121.20048828 201.13253906 -121.52597656 200.51507813 -121.86132812 199.87890625 C-126.64856384 190.5018466 -126.34489094 181.39963647 -123.38671875 171.5390625 C-122.36245486 169.20390943 -121.45332856 167.9279346 -119.4375 166.375 C-116.4375 166.25 -116.4375 166.25 -113.4375 167.375 C-109.54531542 174.35408958 -109.22955137 181.39318209 -108.875 189.1875 C-108.83181641 190.07115234 -108.78863281 190.95480469 -108.74414062 191.86523438 C-108.63858464 194.03499623 -108.53758929 196.2049791 -108.4375 198.375 C-107.28295838 197.13303878 -106.13917438 195.88107155 -105 194.625 C-104.36191406 193.92890625 -103.72382813 193.2328125 -103.06640625 192.515625 C-101.37724155 190.29581143 -100.57033004 189.15380437 -100.4375 186.375 C-101.59327692 183.88719565 -101.59327692 183.88719565 -103.3125 181.4375 C-108.5691189 173.52812225 -108.13529317 164.57485212 -107.4375 155.375 C-106.37899296 151.93966351 -105.03291317 148.97041317 -102.4375 146.375 C-98.05696903 145.91389148 -98.05696903 145.91389148 -95.87890625 147.53515625 C-89.6611125 155.47168974 -91.10568996 168.80166591 -91.4375 178.375 C-88.4675 175.405 -85.4975 172.435 -82.4375 169.375 C-84.22741706 165.49064531 -84.22741706 165.49064531 -86.375 162.8125 C-91.29263562 155.48209185 -92.41266169 145.98242718 -91.4375 137.375 C-90.37258875 132.92700336 -89.37885964 130.00257309 -85.4375 127.375 C-83 127.1875 -83 127.1875 -80.4375 128.375 C-74.48874012 137.1962775 -74.19193188 149.11075569 -73.4375 159.375 C-72.06872884 158.14100937 -70.71780834 156.88719377 -69.375 155.625 C-68.62089844 154.92890625 -67.86679688 154.2328125 -67.08984375 153.515625 C-65.21367802 151.55671067 -65.21367802 151.55671067 -65.51171875 149.33984375 C-66.54320693 147.15065154 -67.75341369 145.53746063 -69.3125 143.6875 C-74.5365232 136.8184118 -75.69004824 130.70828518 -75.8125 122.125 C-75.82651855 121.43921875 -75.84053711 120.7534375 -75.85498047 120.046875 C-75.81338008 115.67776778 -75.18744205 112.80594185 -72.4375 109.375 C-69.5625 108.5625 -69.5625 108.5625 -66.4375 109.375 C-58.47638956 117.24691032 -57.97569246 130.90808464 -57.4375 141.375 C-55.92856184 139.77923801 -54.43058924 138.17310089 -52.9375 136.5625 C-52.1021875 135.66917969 -51.266875 134.77585938 -50.40625 133.85546875 C-48.12665906 131.51116718 -48.12665906 131.51116718 -48.4375 128.375 C-49.8179892 127.04516145 -49.8179892 127.04516145 -51.625 125.8125 C-58.06334134 120.53410275 -60.89798329 112.89632797 -62.21875 104.83203125 C-62.68358014 99.61099274 -62.64561472 95.18717208 -59.6875 90.75 C-57.4375 89.375 -57.4375 89.375 -54.98828125 89.52734375 C-50.89348965 90.88809379 -49.8841492 93.64786858 -47.859375 97.28515625 C-44.22082549 105.19200423 -42.13059627 113.71129666 -41.4375 122.375 C-40.07093543 120.61371656 -38.71955915 118.84063912 -37.375 117.0625 C-36.62089844 116.07636719 -35.86679688 115.09023437 -35.08984375 114.07421875 C-34.54457031 113.18347656 -33.99929687 112.29273438 -33.4375 111.375 C-34.57499915 107.96250256 -35.33862232 107.52330272 -38.125 105.4375 C-43.99151216 100.49950056 -48.07601717 92.96040436 -49.4375 85.375 C-49.57743229 83.54511626 -49.65725313 81.70997702 -49.6875 79.875 C-49.71328125 78.9365625 -49.7390625 77.998125 -49.765625 77.03125 C-49.38284217 73.93253185 -48.58646178 72.60621869 -46.4375 70.375 C-44.0625 69.75 -44.0625 69.75 -41.4375 70.375 C-32.50393854 78.86188338 -30.00826504 90.79937641 -27.4375 102.375 C-25.4575 98.745 -23.4775 95.115 -21.4375 91.375 C-22.84 90.116875 -24.2425 88.85875 -25.6875 87.5625 C-32.42812232 80.85367306 -35.52920781 71.87758532 -35.625 62.375 C-35.56517798 57.84561886 -34.700101 54.637601 -31.4375 51.375 C-29.0625 50.9375 -29.0625 50.9375 -26.4375 51.375 C-18.89045471 59.48217755 -16.84636994 70.74443594 -15.4375 81.375 C-13.4575 77.085 -11.4775 72.795 -9.4375 68.375 C-10.675 67.09625 -11.9125 65.8175 -13.1875 64.5 C-19.94066795 56.85039383 -22.58951074 48.55971941 -22.4375 38.375 C-21.98540712 34.67272587 -21.15363598 31.50035653 -19.125 28.3125 C-17.4375 27.375 -17.4375 27.375 -15.0625 27.1875 C-10.87568969 29.08153324 -9.32450795 32.29515867 -7.4375 36.375 C-5.40336439 42.25045781 -4.12328924 48.2028968 -3.4375 54.375 C-0.9625 47.94 -0.9625 47.94 1.5625 41.375 C0.9025 41.375 0.2425 41.375 -0.4375 41.375 C-7.74228742 32.04551607 -9.0618984 22.83097307 -7.921875 11.30859375 C-7.1137905 6.41446905 -5.44578361 0.83781286 0 0 Z M-197.4375 339.375 C-196.4375 341.375 -196.4375 341.375 -196.4375 341.375 Z " fill="#EBEDDF" transform="translate(262.4375,30.625)"/>
<path d="M0 0 C4.3375321 -0.07517053 8.67470103 -0.12907363 13.01269531 -0.16479492 C14.48281473 -0.17971429 15.952891 -0.20005727 17.42285156 -0.22631836 C29.16407263 -0.43054833 41.00260791 -0.46150706 50.4453125 7.453125 C54.91789508 11.90323229 56.13280751 16.6169265 56.25 22.75 C56.15823028 29.6837124 54.29025153 35.35190982 49.60546875 40.61328125 C46.4459273 43.34232557 42.72743027 45.16470754 39 47 C39.53109375 47.37511719 40.0621875 47.75023437 40.609375 48.13671875 C50.72887195 55.46781416 50.72887195 55.46781416 52 62 C52.97277345 71.83936423 51.10187044 80.62775298 44.75 88.375 C36.79368397 96.68909469 27.47776691 99.78320583 16.08422852 100.11352539 C14.68244446 100.11336973 13.28065303 100.10788099 11.87890625 100.09765625 C11.13414536 100.0962413 10.38938446 100.09482635 9.62205505 100.09336853 C7.26882727 100.08781989 4.9156985 100.07527733 2.5625 100.0625 C0.95638159 100.05747835 -0.64973832 100.05291661 -2.25585938 100.04882812 C-6.17060714 100.03872294 -10.08528962 100.01977199 -14 100 C-12.70203764 87.73782297 -11.16687879 75.52810025 -9.43359375 63.3203125 C-9.19205646 61.60686581 -8.95069144 59.89339483 -8.70948792 58.17990112 C-8.20945607 54.63190103 -7.70760742 51.08416445 -7.2043457 47.53662109 C-6.55996241 42.99345158 -5.91993057 38.4496813 -5.28117275 33.90571785 C-4.78605093 30.3865223 -4.28885356 26.86762247 -3.79100227 23.3488121 C-3.55397724 21.6719699 -3.3175549 19.99504238 -3.08175468 18.3180275 C-2.75377367 15.98792154 -2.42304079 13.65822255 -2.09155273 11.32861328 C-1.99543198 10.64191559 -1.89931122 9.9552179 -1.80027771 9.24771118 C-1.35168691 6.1149198 -0.85403614 3.04992644 0 0 Z M17 15 C15.05816043 23.59367299 14.01925153 32.26046032 13 41 C22.47773279 41.60943385 22.47773279 41.60943385 31 38 C31.7425 37.505 32.485 37.01 33.25 36.5 C36.05503026 32.49281391 36.82110402 27.85083327 37 23 C36.21979604 20.0806654 35.38149996 18.41091467 33.328125 16.19921875 C30.05430091 14.51286976 27.40670462 14.71092487 23.75 14.8125 C22.48671875 14.83957031 21.2234375 14.86664063 19.921875 14.89453125 C18.47554687 14.94673828 18.47554687 14.94673828 17 15 Z M11 55 C10.32979731 59.43697351 9.66444134 63.87466037 9 68.3125 C8.80921875 69.57513672 8.6184375 70.83777344 8.421875 72.13867188 C8.24140625 73.34716797 8.0609375 74.55566406 7.875 75.80078125 C7.70742188 76.91622314 7.53984375 78.03166504 7.3671875 79.1809082 C6.93542036 82.02199454 6.93542036 82.02199454 7 85 C18.31522462 85.859077 18.31522462 85.859077 28 81 C32.03771272 75.68722011 33.0904054 70.64479706 33 64 C32.00913818 59.44203564 29.86935649 57.51013436 26 55 C23.23866047 54.71385083 20.91854388 54.61410117 18.1875 54.75 C17.49462891 54.76804688 16.80175781 54.78609375 16.08789062 54.8046875 C14.39132336 54.85148936 12.69547524 54.92322376 11 55 Z " fill="#EBEDDF" transform="translate(902,166)"/>
<path d="M0 0 C5.94 0.66 11.88 1.32 18 2 C18 11 18 11 17.46850586 14.72045898 C17.3507077 15.56445755 17.23290955 16.40845612 17.11154175 17.2780304 C16.98063141 18.1749913 16.84972107 19.07195221 16.71484375 19.99609375 C16.57829376 20.96286545 16.44174377 21.92963715 16.30105591 22.92570496 C15.85179574 26.09707632 15.39470598 29.26726528 14.9375 32.4375 C14.62313157 34.64560158 14.30925524 36.85377328 13.99584961 39.06201172 C13.17218632 44.85603533 12.34186405 50.64908551 11.51013184 56.44195557 C10.66156978 62.36046776 9.81933597 68.27988002 8.9765625 74.19921875 C7.32388601 85.80036668 5.66417035 97.40049567 4 109 C-1.61 109 -7.22 109 -13 109 C-13 106.69 -13 104.38 -13 102 C-13.51949219 102.48210937 -14.03898437 102.96421875 -14.57421875 103.4609375 C-20.88536208 109.17713016 -24.95192166 111.46347156 -33.5703125 111.24609375 C-38.53816368 110.74291911 -41.22304112 108.77695888 -44.6875 105.3125 C-49.91535027 98.45577263 -50.52561627 91.33080394 -50.4375 83 C-50.42920166 81.98687744 -50.42090332 80.97375488 -50.41235352 79.92993164 C-50.07450107 64.75061811 -46.18512122 48.17834722 -35.4375 36.8125 C-30.43927117 32.36340393 -25.28343432 30.24780636 -18.6875 29.75 C-12.92125513 30.14093186 -8.40261268 32.30180535 -4 36 C-4.04125 34.9790625 -4.0825 33.958125 -4.125 32.90625 C-4.125 26.37078033 -2.96974951 19.94752379 -2 13.5 C-1.71382812 11.5509375 -1.71382812 11.5509375 -1.421875 9.5625 C-0.95301415 6.37424621 -0.4772003 3.18701626 0 0 Z M-25.0859375 51.7265625 C-31.19936826 62.8962142 -33.00638397 76.42902827 -32 89 C-30.47506657 93.2117209 -29.72020689 94.51986208 -26 97 C-22.53353475 96.90877723 -21.15737205 96.13376624 -18.5 93.875 C-17.675 92.92625 -16.85 91.9775 -16 91 C-15.17113281 90.07574219 -14.34226562 89.15148437 -13.48828125 88.19921875 C-9.67354206 82.80054889 -9.44997813 76.33769517 -8.6875 69.9375 C-8.51927734 68.68388672 -8.35105469 67.43027344 -8.17773438 66.13867188 C-6.41825458 56.39569269 -6.41825458 56.39569269 -8.5 47.125 C-11.36469908 44.69000578 -13.29098517 44.25891918 -17.04296875 44.5234375 C-21.09576974 45.51034712 -22.95834738 48.34384728 -25.0859375 51.7265625 Z " fill="#EBEDDF" transform="translate(1457,157)"/>
<path d="M0 0 C-3.16887304 26.75125788 -3.16887304 26.75125788 -5 40 C-4.52691406 39.52949219 -4.05382812 39.05898437 -3.56640625 38.57421875 C2.68484143 32.68854111 8.33745722 29.63449346 17.0625 29.875 C21.85844511 30.59326947 24.99170736 32.3850267 28.4296875 35.78125 C31.78126037 40.5168057 32.22473532 45.75440384 31.83203125 51.42578125 C30.4115169 59.5691259 26.05682659 65.52749076 19.84375 70.7734375 C17.66924114 72.22003874 15.43000594 73.05914389 13 74 C13.33322266 74.98919434 13.66644531 75.97838867 14.00976562 76.99755859 C15.24277518 80.66044498 16.47184128 84.32464426 17.69970703 87.98925781 C18.23215614 89.57653441 18.76568065 91.16345069 19.30029297 92.75 C20.06759689 95.02771108 20.83105112 97.30668093 21.59375 99.5859375 C21.83436157 100.29744965 22.07497314 101.00896179 22.32287598 101.74203491 C24 106.77225659 24 106.77225659 24 109 C17.73 109 11.46 109 5 109 C2.28946201 101.77189868 -0.00482259 94.58018497 -2.1875 87.1875 C-2.55552734 85.96095703 -2.92355469 84.73441406 -3.30273438 83.47070312 C-3.65013672 82.29830078 -3.99753906 81.12589844 -4.35546875 79.91796875 C-4.67153076 78.85344482 -4.98759277 77.7889209 -5.31323242 76.69213867 C-6 74 -6 74 -6 71 C-5.26394531 70.62488281 -4.52789063 70.24976563 -3.76953125 69.86328125 C5.38440483 65.21539133 5.38440483 65.21539133 11.3125 57.125 C12.08381706 53.61901337 12.27529201 50.57879612 12 47 C11.34 46.34 10.68 45.68 10 45 C5.08085169 45.21862881 2.41674164 46.49783982 -1 50 C-7.02195771 58.57718046 -9.10884912 66.66036218 -10.5078125 76.87109375 C-10.63815887 77.793423 -10.76850525 78.71575226 -10.90280151 79.66603088 C-11.31483845 82.58922485 -11.72002104 85.51332074 -12.125 88.4375 C-12.40449442 90.42910015 -12.68443769 92.42063737 -12.96484375 94.41210938 C-13.64842455 99.2740268 -14.32586303 104.13676451 -15 109 C-20.94 109 -26.88 109 -33 109 C-33 100 -33 100 -32.46850586 96.27954102 C-32.3507077 95.43554245 -32.23290955 94.59154388 -32.11154175 93.7219696 C-31.98063141 92.8250087 -31.84972107 91.92804779 -31.71484375 91.00390625 C-31.57829376 90.03713455 -31.44174377 89.07036285 -31.30105591 88.07429504 C-30.85179574 84.90292368 -30.39470598 81.73273472 -29.9375 78.5625 C-29.62313157 76.35439842 -29.30925524 74.14622672 -28.99584961 71.93798828 C-28.17218632 66.14396467 -27.34186405 60.35091449 -26.51013184 54.55804443 C-25.66156978 48.63953224 -24.81933597 42.72011998 -23.9765625 36.80078125 C-22.32388601 25.19963332 -20.66417035 13.59950433 -19 2 C-16.58374679 1.66340751 -14.16707192 1.33061612 -11.75 1 C-10.72712891 0.85691406 -10.72712891 0.85691406 -9.68359375 0.7109375 C-6.40628012 0.2654774 -3.31615847 0 0 0 Z " fill="#EBEDDF" transform="translate(681,157)"/>
<path d="M0 0 C-0.48465749 9.00794442 -1.61923931 17.83900396 -2.98364258 26.75073242 C-3.11407959 27.61674072 -3.2445166 28.48274902 -3.37890625 29.375 C-3.4982251 30.14585937 -3.61754395 30.91671875 -3.74047852 31.7109375 C-4.01798368 34.1586218 -4.04321369 36.53872211 -4 39 C-3.48050781 38.51789063 -2.96101562 38.03578125 -2.42578125 37.5390625 C2.43197745 33.13924408 5.75372668 30.29511576 12.4375 29.6875 C17.82047846 30.15969109 21.26400889 31.92129946 24.8125 35.9375 C30.78808272 44.30331581 27.90731164 56.27996482 26.50390625 65.8359375 C26.35090561 66.91831696 26.19790497 68.00069641 26.04026794 69.11587524 C25.55479219 72.53664247 25.05865335 75.95576705 24.5625 79.375 C24.23305679 81.69131146 23.90427483 84.00771707 23.57617188 86.32421875 C22.9732969 90.55572942 22.36997897 94.78715984 21.75610352 99.01708984 C21.63396988 99.86105316 21.51183624 100.70501648 21.38600159 101.57455444 C20.99026686 104.06115829 20.4938002 106.53099898 20 109 C13.73 109 7.46 109 1 109 C1.21205078 107.51266357 1.42410156 106.02532715 1.64257812 104.49291992 C2.43297134 98.93458014 3.21330396 93.3748653 3.99072266 87.81469727 C4.32752942 85.4158775 4.66700408 83.01743065 5.00927734 80.61938477 C5.50292454 77.15737799 5.9867206 73.69410991 6.46875 70.23046875 C6.62186646 69.17168015 6.77498291 68.11289154 6.93273926 67.02201843 C7.85558028 60.30393339 8.18465545 53.77891704 8 47 C2.11212986 48.17820192 -0.25277604 49.57680909 -3.71875 54.73828125 C-9.62280058 64.06398343 -10.35139576 74.43817951 -11.5 85.1875 C-11.73623204 87.17032402 -11.97579481 89.15275416 -12.21875 91.13476562 C-12.55885975 93.90983351 -12.89419633 96.68441934 -13.20275879 99.46318054 C-13.33925842 100.68639763 -13.33925842 100.68639763 -13.47851562 101.93432617 C-13.55573853 102.64932785 -13.63296143 103.36432953 -13.71252441 104.10099792 C-14 106 -14 106 -15 109 C-20.94 109 -26.88 109 -33 109 C-32.28917146 97.462664 -30.72322322 86.11312667 -29.09375 74.67578125 C-28.80585497 72.63652609 -28.51822109 70.59723405 -28.23083496 68.5579071 C-27.63161612 64.31239761 -27.02952452 60.06730866 -26.42529297 55.82250977 C-25.65000844 50.37462256 -24.88162386 44.92578822 -24.11528778 39.47663593 C-23.52424003 35.27881848 -22.92980569 31.08148616 -22.33430481 26.88429832 C-22.04942164 24.87372185 -21.76555374 22.86300125 -21.48271179 20.85213661 C-21.08889836 18.05628058 -20.69058657 15.26110262 -20.29101562 12.46606445 C-20.17462234 11.63341064 -20.05822906 10.80075684 -19.93830872 9.94287109 C-19.11430867 4.22861734 -19.11430867 4.22861734 -18 2 C-15.14871729 1.52282252 -12.37108226 1.15793379 -9.5 0.875 C-8.70207031 0.78863281 -7.90414062 0.70226562 -7.08203125 0.61328125 C-1.34833829 0 -1.34833829 0 0 0 Z " fill="#EBEDDE" transform="translate(793,157)"/>
<path d="M0 0 C3.74696857 2.79821692 6.52073505 5.01135885 8.375 9.3828125 C7.11048068 10.70139678 5.83814525 12.01248881 4.5625 13.3203125 C3.85480469 14.05121094 3.14710938 14.78210938 2.41796875 15.53515625 C0.375 17.3828125 0.375 17.3828125 -2.625 18.3828125 C-4.78125 17.203125 -4.78125 17.203125 -7.125 15.5078125 C-12.08277078 11.95474344 -15.44804088 10.96403561 -21.625 11.3828125 C-25.7219656 12.9585685 -28.59100223 14.42186948 -30.625 18.3828125 C-31.69552558 22.3329689 -32.06849253 25.29871966 -30.5 29.1328125 C-26.7901524 33.58462961 -22.37334033 36.1657187 -17.25 38.7578125 C-10.27050131 42.47232536 -3.62456833 46.21982133 -0.28515625 53.72265625 C1.86045257 62.36857107 1.7084659 73.09781962 -2.25 81.1796875 C-7.99350796 90.38235367 -15.24096901 95.57672866 -25.5390625 99.0234375 C-35.37212305 100.71752284 -46.6438443 100.3298154 -55.12890625 94.73046875 C-58.5215676 92.15466005 -61.65532232 89.43627419 -64.625 86.3828125 C-63.17718207 82.93852985 -61.34805391 81.02150288 -58.5 78.6328125 C-57.77554687 78.01921875 -57.05109375 77.405625 -56.3046875 76.7734375 C-55.47324219 76.08507812 -55.47324219 76.08507812 -54.625 75.3828125 C-51.19857725 77.00189138 -48.32897936 78.99474781 -45.30859375 81.26171875 C-40.87927006 84.21117559 -35.72865084 83.82072326 -30.625 83.3828125 C-25.88670231 81.71563368 -23.4238062 79.52919205 -20.625 75.3828125 C-19.00104402 70.51094456 -18.8622809 65.56927392 -20.5625 60.6953125 C-25.12367157 55.58127165 -31.21218003 52.57662183 -37.25 49.5078125 C-43.75232802 46.01497711 -48.15191659 41.84135615 -51.0625 35.0078125 C-52.61803014 24.98328495 -51.6622998 16.51000867 -45.96484375 7.86328125 C-35.21844253 -5.44283772 -14.70850101 -9.06148723 0 0 Z " fill="#EBEDDF" transform="translate(398.625,168.6171875)"/>
<path d="M0 0 C3.97042385 2.96509217 6.11728178 4.86737605 8.375 9.3828125 C5.075 12.3528125 1.775 15.3228125 -1.625 18.3828125 C-4.13151042 16.85286458 -6.63802083 15.32291667 -9.14453125 13.79296875 C-13.43055054 11.35634991 -16.7400543 11.05162974 -21.625 11.3828125 C-25.7219656 12.9585685 -28.59100223 14.42186948 -30.625 18.3828125 C-31.73100051 23.65758416 -32.11008167 27.41264915 -29.625 32.3828125 C-27.90761678 33.39990513 -27.90761678 33.39990513 -25.625 34.3828125 C-3.13300315 45.76986678 -3.13300315 45.76986678 -0.07421875 55.0546875 C1.73860463 64.44984173 1.45497652 75.1134189 -3.625 83.3828125 C-9.10965672 91.4647706 -16.33359499 95.94242388 -25.5390625 99.0234375 C-35.37212305 100.71752284 -46.6438443 100.3298154 -55.12890625 94.73046875 C-58.5215676 92.15466005 -61.65532232 89.43627419 -64.625 86.3828125 C-63.2345501 83.27839219 -61.60928402 81.0171682 -59.25 78.5703125 C-58.37214844 77.63251953 -58.37214844 77.63251953 -57.4765625 76.67578125 C-55.625 75.3828125 -55.625 75.3828125 -53.65234375 75.49609375 C-51.31162793 76.51987504 -49.55521136 77.7855718 -47.5625 79.3828125 C-42.16123038 83.6955345 -37.37159592 83.96169359 -30.625 83.3828125 C-25.90022669 81.72039226 -23.37336841 79.55626083 -20.625 75.3828125 C-19.11239339 71.72734653 -18.8747044 67.25130907 -19.625 63.3828125 C-22.2957762 58.35470083 -25.41854393 55.91539055 -30.375 53.3828125 C-47.34848531 44.18792495 -47.34848531 44.18792495 -50.875 35.1953125 C-52.84306974 25.190958 -51.65575318 16.50007321 -45.96484375 7.86328125 C-35.21844253 -5.44283772 -14.70850101 -9.06148723 0 0 Z " fill="#EBEDDF" transform="translate(571.625,168.6171875)"/>
<path d="M0 0 C0.14539017 6.02417229 -0.3898886 11.66969969 -1.3125 17.6171875 C-1.58598426 19.45962848 -1.85942027 21.30207662 -2.1328125 23.14453125 C-2.56524549 26.01025779 -3.00009177 28.87560244 -3.43652344 31.74072266 C-3.85960453 34.53200255 -4.27384689 37.32449721 -4.6875 40.1171875 C-4.88436401 41.38017166 -4.88436401 41.38017166 -5.08520508 42.66867065 C-6.87129556 52.59956313 -6.87129556 52.59956313 -4.91723633 62.11471558 C-4.61454834 62.73685944 -4.31186035 63.3590033 -4 64 C-5.1171875 66.796875 -5.1171875 66.796875 -6.875 69.75 C-7.44992187 70.73484375 -8.02484375 71.7196875 -8.6171875 72.734375 C-9.07351563 73.48203125 -9.52984375 74.2296875 -10 75 C-15.95768862 73.88924449 -19.00589259 72.84134231 -23 68 C-23.33 67.34 -23.66 66.68 -24 66 C-24.51949219 66.48210937 -25.03898438 66.96421875 -25.57421875 67.4609375 C-26.62029297 68.40839844 -26.62029297 68.40839844 -27.6875 69.375 C-28.37199219 70.00148438 -29.05648437 70.62796875 -29.76171875 71.2734375 C-35.38429241 75.61057111 -41.15638657 75.63497444 -48 75 C-54.33359638 72.88880121 -57.50914389 68.60899819 -60.75 62.9375 C-65.97452442 49.2343188 -62.75120624 30.08635124 -57 17 C-51.74039066 6.41980033 -45.1744325 -0.72849694 -33.984375 -4.71875 C-22.19109555 -8.03833977 -10.83361836 -4.87692786 0 0 Z M-34 12 C-42.93759769 22.41648076 -44.44813493 37.54161973 -44.43359375 50.73046875 C-43.94663546 54.40239745 -42.9413606 56.85684475 -41 60 C-38.31048824 61.60266778 -38.31048824 61.60266778 -35 61 C-29.31453809 57.40351462 -25.14282587 52.78323876 -23.54490662 46.0952301 C-23.18135744 43.94912243 -22.88468845 41.80421636 -22.61328125 39.64453125 C-22.50654587 38.86107834 -22.39981049 38.07762543 -22.2898407 37.27043152 C-21.95403945 34.78567575 -21.63331399 32.29923019 -21.3125 29.8125 C-21.08622354 28.13073303 -20.85901908 26.44909064 -20.63085938 24.76757812 C-19.46449917 16.90995912 -19.46449917 16.90995912 -19 9 C-25.03571991 7.72932213 -29.21413736 7.60826722 -34 12 Z " fill="#EBEDDF" transform="translate(1024,193)"/>
<path d="M0 0 C-0.08769653 0.62116699 -0.17539307 1.24233398 -0.26574707 1.88232422 C-1.18067131 8.37066933 -2.08789048 14.86005917 -2.99072266 21.35009766 C-3.32828066 23.76931729 -3.66777622 26.18826743 -4.00927734 28.60693359 C-4.50091879 32.09142443 -4.98549336 35.57683764 -5.46875 39.0625 C-5.62186646 40.13677246 -5.77498291 41.21104492 -5.93273926 42.31787109 C-7.718723 51.94337636 -7.718723 51.94337636 -5.8515625 61.140625 C-5 63 -5 63 -5.8984375 65.796875 C-6.38570312 66.77140625 -6.87296875 67.7459375 -7.375 68.75 C-7.85710937 69.73484375 -8.33921875 70.7196875 -8.8359375 71.734375 C-9.22007813 72.48203125 -9.60421875 73.2296875 -10 74 C-15.36742536 73.41554702 -18.98838876 72.61765003 -22.5625 68.375 C-23.39730538 67.26645085 -24.21824329 66.14657651 -25 65 C-25.51949219 65.48210937 -26.03898437 65.96421875 -26.57421875 66.4609375 C-27.62029297 67.40839844 -27.62029297 67.40839844 -28.6875 68.375 C-29.37199219 69.00148438 -30.05648438 69.62796875 -30.76171875 70.2734375 C-35.62204832 74.02259225 -40.22654277 74.49988458 -46.2109375 74.37890625 C-52.0940946 73.57965381 -55.72575852 70.57603551 -59.375 66.0625 C-66.19994797 53.20009805 -64.16412881 35.9972051 -60.19140625 22.41796875 C-56.26499734 11.15368091 -50.75848967 2.18101957 -39.9375 -3.5 C-27.14595534 -9.25779005 -11.75713143 -7.83808762 0 0 Z M-33 10 C-41.92916597 17.83807087 -43.90179448 29.68848315 -45 41 C-45.40399812 47.66596898 -45.58135895 53.12796157 -41.75 58.875 C-39.94367108 60.25911301 -39.94367108 60.25911301 -37.125 60 C-33.23489877 58.75516761 -31.65409389 57.07316135 -29 54 C-28.32163086 53.28714844 -27.64326172 52.57429688 -26.94433594 51.83984375 C-24.50840825 48.28199457 -24.01296372 44.99398397 -23.515625 40.8125 C-23.41030457 40.03237549 -23.30498413 39.25225098 -23.19647217 38.44848633 C-22.86570449 35.96738746 -22.55797218 33.48401977 -22.25 31 C-22.02876579 29.3305401 -21.80612354 27.66126616 -21.58203125 25.9921875 C-20.30638552 17.0301065 -20.30638552 17.0301065 -20 8 C-25.45794214 6.79925273 -28.33698243 6.82517952 -33 10 Z " fill="#EBEDDF" transform="translate(1401,194)"/>
<path d="M0 0 C-0.37677247 8.16915137 -1.23930203 16.16181826 -2.48046875 24.23828125 C-2.61736115 25.13666718 -2.75425354 26.0350531 -2.89529419 26.96066284 C-3.46705278 30.69076591 -4.04418792 34.41978034 -4.64233398 38.14575195 C-5.08235234 40.90369425 -5.50157923 43.66418627 -5.91796875 46.42578125 C-6.05639694 47.25410965 -6.19482513 48.08243805 -6.33744812 48.93586731 C-7.09279925 54.06630835 -6.82869715 58.07424132 -5.38780212 63.06838989 C-4.77538712 66.11877808 -5.83388105 67.95727511 -7.375 70.5625 C-7.85710937 71.40941406 -8.33921875 72.25632812 -8.8359375 73.12890625 C-9.41214844 74.05509766 -9.41214844 74.05509766 -10 75 C-15.94937013 74.43339332 -20.02356503 72.37172196 -23.875 67.75 C-24.24625 67.1725 -24.6175 66.595 -25 66 C-25.44730469 66.48210937 -25.89460938 66.96421875 -26.35546875 67.4609375 C-26.96003906 68.09257812 -27.56460937 68.72421875 -28.1875 69.375 C-28.77917969 70.00148438 -29.37085938 70.62796875 -29.98046875 71.2734375 C-34.66745475 75.28049323 -39.42644255 75.38515286 -45.3515625 75.2421875 C-50.52018639 74.76954048 -53.645376 72.60259928 -57.1875 69 C-63.51088425 61.06672528 -63.78635651 50.71635033 -63 41 C-60.91038962 24.57469054 -56.07388138 10.36032237 -43.078125 -0.52734375 C-30.04107671 -9.76600391 -13.49223095 -5.90197637 0 0 Z M-33 11 C-42.30204645 20.57563606 -44.22521761 34.22698171 -44.375 47.0625 C-44.38885742 47.77656006 -44.40271484 48.49062012 -44.41699219 49.22631836 C-44.37722351 53.63907147 -43.75904572 56.52177174 -41 60 C-38.25030044 61.43134773 -38.25030044 61.43134773 -35 61 C-30.32651643 58.08279369 -25.74263954 53.84182323 -24.32397461 48.41308594 C-24.11526733 46.96337402 -24.11526733 46.96337402 -23.90234375 45.484375 C-23.7415332 44.40462402 -23.58072266 43.32487305 -23.41503906 42.21240234 C-23.25745117 41.06980957 -23.09986328 39.9272168 -22.9375 38.75 C-22.68371582 37.00710693 -22.68371582 37.00710693 -22.42480469 35.22900391 C-21.16739153 26.50100606 -20.00575625 17.76066631 -19 9 C-20.25296875 8.81179687 -21.5059375 8.62359375 -22.796875 8.4296875 C-23.85406738 8.27089111 -23.85406738 8.27089111 -24.93261719 8.10888672 C-28.2985934 7.93160455 -30.26766739 9.13704595 -33 11 Z " fill="#EBEDDF" transform="translate(1128,193)"/>
<path d="M0 0 C-0.08769653 0.62116699 -0.17539307 1.24233398 -0.26574707 1.88232422 C-1.18067131 8.37066933 -2.08789048 14.86005917 -2.99072266 21.35009766 C-3.32828066 23.76931729 -3.66777622 26.18826743 -4.00927734 28.60693359 C-4.50091879 32.09142443 -4.98549336 35.57683764 -5.46875 39.0625 C-5.62186646 40.13677246 -5.77498291 41.21104492 -5.93273926 42.31787109 C-7.718723 51.94337636 -7.718723 51.94337636 -5.8515625 61.140625 C-5 63 -5 63 -5.8984375 65.796875 C-6.38570312 66.77140625 -6.87296875 67.7459375 -7.375 68.75 C-7.85710938 69.73484375 -8.33921875 70.7196875 -8.8359375 71.734375 C-9.22007812 72.48203125 -9.60421875 73.2296875 -10 74 C-15.36742536 73.41554702 -18.98838876 72.61765003 -22.5625 68.375 C-23.39730538 67.26645085 -24.21824329 66.14657651 -25 65 C-25.51949219 65.48210937 -26.03898438 65.96421875 -26.57421875 66.4609375 C-32.79400575 72.09438598 -36.92087635 74.52404405 -45.4375 74.30859375 C-50.31842995 73.72079883 -54.09800601 71.95523046 -57.53515625 68.421875 C-64.97932339 58.78569363 -64.15514885 45.12826762 -62.6953125 33.59228516 C-61.14468521 24.31027769 -58.35051886 15.82497189 -53 8 C-52.49855469 7.26265625 -51.99710938 6.5253125 -51.48046875 5.765625 C-46.2083218 -1.05866253 -38.77983535 -4.69640854 -30.5625 -6.9375 C-19.64613278 -7.12901521 -9.29666718 -6.19777812 0 0 Z M-33 10 C-42.58288355 19.58288355 -44.97791801 34.04958055 -45.3125 47.1875 C-44.94321365 51.69279347 -44.20851698 55.12679868 -41.75 58.9375 C-39.93145235 60.25615175 -39.93145235 60.25615175 -37.125 59.9375 C-31.08092757 58.12427827 -28.08919387 54.33432874 -25 49 C-24.34058133 46.25653624 -23.85985521 43.74587896 -23.515625 40.96875 C-23.41030457 40.21460815 -23.30498413 39.46046631 -23.19647217 38.68347168 C-22.97777445 37.09773887 -22.76639986 35.51098046 -22.56201172 33.92333984 C-22.25066422 31.50515886 -21.91844457 29.09059047 -21.58203125 26.67578125 C-21.37117902 25.12776942 -21.1615038 23.57959672 -20.953125 22.03125 C-20.85630432 21.31545776 -20.75948364 20.59966553 -20.659729 19.86218262 C-20.14991336 15.88093341 -19.90430927 12.01273567 -20 8 C-25.44497097 6.80210639 -28.33335302 6.85508573 -33 10 Z " fill="#EBEDDE" transform="translate(643,194)"/>
<path d="M0 0 C4.68573046 2.65230026 6.63252293 5.83506878 8.3125 10.875 C9.46999438 23.97085263 6.80507232 37.09903974 4.875 50 C4.5453593 52.26289505 4.21657662 54.52591525 3.88867188 56.7890625 C3.28689112 60.90844806 2.68504513 65.02780031 2.06860352 69.14501953 C1.94646988 69.96438995 1.82433624 70.78376038 1.69850159 71.62796021 C1.33738254 73.7301507 0.8298241 75.80570359 0.3125 77.875 C-5.6275 77.875 -11.5675 77.875 -17.6875 77.875 C-17.01242026 66.22793458 -15.50070918 54.84412222 -13.76879883 43.31665039 C-12.44549713 34.45831314 -11.25473879 25.86435037 -11.6875 16.875 C-15.41530774 16.60541074 -15.41530774 16.60541074 -18.56640625 18.34375 C-19.12199219 19.0140625 -19.67757813 19.684375 -20.25 20.375 C-20.80816406 21.0246875 -21.36632813 21.674375 -21.94140625 22.34375 C-26.50964387 28.96616159 -28.39866552 35.04104997 -29.35546875 42.9921875 C-29.48061356 43.9305545 -29.60575836 44.86892151 -29.73469543 45.83572388 C-30.1283408 48.80556481 -30.50246602 51.77744409 -30.875 54.75 C-31.26202279 57.74336062 -31.65307616 60.73614406 -32.04743958 63.72854614 C-32.29073389 65.58422761 -32.52908418 67.44056532 -32.76200867 69.2975769 C-32.86914688 70.13249664 -32.9762851 70.96741638 -33.08666992 71.82763672 C-33.17897385 72.56295624 -33.27127777 73.29827576 -33.36637878 74.05587769 C-33.6875 75.875 -33.6875 75.875 -34.6875 77.875 C-40.6275 77.875 -46.5675 77.875 -52.6875 77.875 C-52.0110522 68.68528515 -50.90752365 59.606419 -49.62109375 50.484375 C-49.42045445 49.04424966 -49.22010683 47.60408365 -49.02003479 46.16387939 C-48.49850839 42.41534262 -47.97308272 38.66736299 -47.44677734 34.91949463 C-46.90807511 31.07817577 -46.37315318 27.23633064 -45.83789062 23.39453125 C-44.79141039 15.88750677 -43.74045067 8.38112018 -42.6875 0.875 C-37.4075 0.875 -32.1275 0.875 -26.6875 0.875 C-26.3575 3.845 -26.0275 6.815 -25.6875 9.875 C-25.19121094 9.33230469 -24.69492188 8.78960937 -24.18359375 8.23046875 C-16.97234673 0.63608147 -10.7651331 -3.28427789 0 0 Z " fill="#EBEDDE" transform="translate(1185.6875,188.125)"/>
<path d="M0 0 C4.64802665 5.19485332 6.81755614 11.15234756 6.44140625 18.1171875 C5.41245318 25.45959338 2.9172624 31.57503754 -2.875 36.375 C-12.19649315 42.53014468 -24.65980347 46.375 -35.875 46.375 C-35.45209963 48.33653791 -35.01118382 50.29419875 -34.5625 52.25 C-34.19705078 53.88582031 -34.19705078 53.88582031 -33.82421875 55.5546875 C-33.09597942 58.66942353 -33.09597942 58.66942353 -29.875 60.375 C-23.11124823 61.53484913 -18.40907437 60.13738374 -12.78515625 56.37109375 C-12.15480469 56.04238281 -11.52445313 55.71367187 -10.875 55.375 C-7.2142481 56.59525063 -6.95160559 57.501491 -5.1875 60.8125 C-4.75050781 61.61558594 -4.31351563 62.41867188 -3.86328125 63.24609375 C-2.875 65.375 -2.875 65.375 -2.875 67.375 C-11.58946613 74.77096534 -20.31802803 76.93864139 -31.56640625 76.66015625 C-38.67716197 76.04730481 -43.82536708 73.53939731 -48.875 68.375 C-55.90222357 57.10450085 -55.47818252 42.41308773 -52.6965332 29.76049805 C-49.61779416 17.6005863 -44.86300183 7.00090288 -34.0625 0.0625 C-23.07385987 -6.12479737 -11.05031123 -6.24582809 0 0 Z M-27.875 14.375 C-31.47314157 20.12022933 -34.27881549 26.51013671 -33.875 33.375 C-26.48346663 32.84703333 -20.18405866 31.15800871 -14.9375 25.625 C-12.30153451 21.47135742 -11.875 19.28684446 -11.875 14.375 C-12.6513932 11.3004644 -12.6513932 11.3004644 -14.875 9.375 C-20.63588311 8.28804092 -24.21306811 9.97006743 -27.875 14.375 Z " fill="#EBEDDF" transform="translate(1530.875,191.625)"/>
<path d="M0 0 C20.46 0 40.92 0 62 0 C61 9 61 9 59 16 C52.07 16 45.14 16 38 16 C37.88213135 17.96598145 37.7642627 19.93196289 37.64282227 21.95751953 C37.04735309 30.25764794 35.92016279 38.450477 34.71484375 46.6796875 C34.49163772 48.22903317 34.26887284 49.77844245 34.04652405 51.32791138 C33.46729208 55.35613053 32.88217433 59.38347209 32.29571533 63.41064453 C31.69545395 67.54016466 31.1009166 71.67050859 30.50585938 75.80078125 C29.34275699 83.86799424 28.17288925 91.9342041 27 100 C20.73 100 14.46 100 8 100 C8.65629252 89.9860438 9.85811073 80.12365465 11.28515625 70.19921875 C11.50828884 68.62601223 11.73105537 67.05275375 11.95347595 65.47944641 C12.53344818 61.38392739 13.1183147 57.28912259 13.70428467 53.19445801 C14.30392346 48.99790601 14.8988185 44.80068176 15.49414062 40.60351562 C16.65817952 32.40168599 17.82784082 24.20067307 19 16 C12.07 16 5.14 16 -2 16 C-1.34 10.72 -0.68 5.44 0 0 Z " fill="#EBEDDE" transform="translate(1234,166)"/>
<path d="M0 0 C2.625 2.8125 2.625 2.8125 4 5 C1.36 7.97 -1.28 10.94 -4 14 C-9 12 -9 12 -10.9921875 11.11328125 C-15.67697355 9.12078926 -18.93036587 8.60833573 -24 10 C-26.06402685 10.98048938 -26.06402685 10.98048938 -27 13 C-27.66676878 16.45749949 -27.66676878 16.45749949 -27 20 C-23.56170434 23.25534048 -19.78415148 25.22902301 -15.5625 27.3125 C-8.85112407 30.88076548 -3.92726703 34.30704737 -1.5625 41.75 C-0.09888775 49.63216179 -1.17047137 57.18028222 -5.42578125 63.99609375 C-10.13001777 69.98436505 -16.541592 73.64900095 -24 75 C-33.78795665 75.93936551 -43.04104913 75.27127597 -51.234375 69.3984375 C-52.88635824 68.00416364 -54.45435332 66.51129897 -56 65 C-55.41604794 61.48850159 -54.16720355 59.70968242 -51.6875 57.1875 C-51.09324219 56.56230469 -50.49898437 55.93710938 -49.88671875 55.29296875 C-48 54 -48 54 -45.9609375 54.17578125 C-43.05333584 55.39790067 -40.60074709 57.22927858 -38 59 C-33.43401671 60.52199443 -29.60107286 60.74716734 -25.1875 58.6875 C-22.02806149 56.25021886 -21.07638201 54.58923264 -20.5625 50.625 C-21.12275911 45.98285312 -22.50874126 45.01690294 -26 42 C-28.10654131 40.80304161 -30.25573288 39.67862134 -32.4375 38.625 C-38.58402192 35.44384426 -42.83856741 32.32286518 -46 26 C-46.63326832 18.08933676 -47.12941281 10.47211205 -42 4 C-30.89460918 -8.01251433 -13.32379589 -9.07526475 0 0 Z " fill="#EBEDDF" transform="translate(1637,193)"/>
<path d="M0 0 C2.94636537 2.67851398 4.64092196 5.14936703 5.40625 9.09375 C6.28143965 31.5569511 -8.15224243 57.29201741 -22.8125 73.5625 C-23.87404297 74.67818359 -23.87404297 74.67818359 -24.95703125 75.81640625 C-27.07302407 78.01340607 -27.07302407 78.01340607 -29.0546875 80.62890625 C-31.63524075 83.77427939 -34.16545758 85.6362506 -38 87 C-41.87489306 87 -44.11171785 86.5238587 -47.4375 84.5625 C-51.07300861 78.60026587 -49.10967677 71.86845635 -47.60986328 65.42236328 C-41.06802132 39.43831365 -27.7762344 16.66435501 -4.4375 2.5625 C-2.96185286 1.70226734 -1.48398041 0.84577589 0 0 Z " fill="#EBEDDE" transform="translate(1909,253)"/>
<path d="M0 0 C0.96268799 -0.02626465 1.92537598 -0.0525293 2.91723633 -0.07958984 C10.11810199 -0.09565907 17.58549814 0.95112695 23.0925293 6.01025391 C23.49511963 6.46062012 23.89770996 6.91098633 24.3125 7.375 C21.0110038 15.66851757 10.41731244 24.81108417 2.3125 28.375 C-12.95392152 34.29901585 -28.67909502 37.53002374 -45.0625 37.625 C-45.94421875 37.645625 -46.8259375 37.66625 -47.734375 37.6875 C-55.07486432 37.73055272 -62.12772583 36.69299248 -68.375 32.625 C-69.6875 30.375 -69.6875 30.375 -70 27.125 C-67.20678371 19.14438202 -60.16448089 15.35896873 -52.875 11.75 C-35.99223573 4.10108301 -18.46973813 0.31336906 0 0 Z " fill="#EBEDDF" transform="translate(1826.6875,290.625)"/>
<path d="M0 0 C1.55974079 2.2854117 2.98510314 4.55114792 4.375 6.9375 C4.98226929 7.97692749 4.98226929 7.97692749 5.60180664 9.03735352 C6.74684212 11.01817456 7.87548251 13.0074806 9 15 C9.46535156 15.804375 9.93070313 16.60875 10.41015625 17.4375 C20.61065705 37.29550917 15.35868751 68.29830436 9.16015625 88.50390625 C7.54016546 91.98934098 5.44448713 94.27775644 2 96 C-1.59394951 96.39932772 -3.50375503 96.27697394 -6.6875 94.5 C-11.47483138 89.32450661 -12.67870263 81.80224576 -14.125 75.0625 C-14.37830078 73.94198242 -14.37830078 73.94198242 -14.63671875 72.79882812 C-19.08730189 52.4908523 -19.26066656 26.04656496 -10 7 C-4.14143095 0 -4.14143095 0 0 0 Z " fill="#EBEDDE" transform="translate(1949,214)"/>
<path d="M0 0 C3.75308136 1.71524473 5.63414741 3.5735928 8 7 C14.90361637 28.59204242 5.98097308 58.09009705 -3.97827148 77.46191406 C-11.70832764 92.03452169 -11.70832764 92.03452169 -17 94 C-23.04887715 93.68163804 -23.04887715 93.68163804 -25.640625 91.82421875 C-32.65000298 82.41795577 -28.97621547 63.95204739 -27.41699219 53.12988281 C-23.91193453 30.87316232 -16.24793429 15.65947791 0 0 Z " fill="#EBEDDF" transform="translate(1804,176)"/>
<path d="M0 0 C1.37671875 0.21462891 1.37671875 0.21462891 2.78125 0.43359375 C5.02174119 0.7836705 7.26120947 1.1392349 9.5 1.5 C9.96080834 7.14490218 9.04764964 11.08505843 5.5 15.5 C3.42805558 17.42528258 1.2043217 18.93581116 -1.1875 20.4375 C-1.84250488 20.85862061 -2.49750977 21.27974121 -3.17236328 21.71362305 C-15.77047739 29.60568201 -29.07746612 34.99647462 -43.5 38.5 C-44.51191406 38.74621094 -45.52382812 38.99242187 -46.56640625 39.24609375 C-52.80397946 40.50401881 -59.03084926 40.72255914 -65.375 40.8125 C-66.58905518 40.83920776 -66.58905518 40.83920776 -67.82763672 40.86645508 C-72.75726706 40.8598031 -76.28665781 40.34400598 -80.5 37.5 C-81.91046079 33.34697655 -81.93544289 31.38902923 -80 27.4375 C-61.75210247 5.99622041 -27.07958175 -4.36894415 0 0 Z " fill="#EBEDDF" transform="translate(1902.5,214.5)"/>
<path d="M0 0 C1.99402036 2.39343893 3.50089282 4.53075534 5.0625 7.1875 C5.50005615 7.91493408 5.9376123 8.64236816 6.38842773 9.3918457 C12.44749381 19.80760917 14.69280165 30.01926426 15 42 C15.02046387 42.64984863 15.04092773 43.29969727 15.06201172 43.96923828 C15.45186465 57.60120307 14.55734705 70.70827006 10.5625 83.8125 C10.35729736 84.48869385 10.15209473 85.1648877 9.94067383 85.86157227 C8.83920226 89.22801743 7.9156223 91.8733992 5 94 C1.46554219 95.0996091 -0.55097767 95.12572625 -4.125 94.125 C-10.61189921 89.33033537 -11.98584352 80.01792929 -13.6875 72.5 C-13.89955078 71.61441406 -14.11160156 70.72882813 -14.33007812 69.81640625 C-18.96025306 49.92272088 -19.28495664 25.05540027 -11 6 C-7.98407512 1.52180851 -5.61772597 -1.06810174 0 0 Z " fill="#EBEDDE" transform="translate(1841,100)"/>
<path d="M0 0 C9.30278486 1.2214088 17.14171192 9.32717338 23.0078125 16.1953125 C26.68658132 21.37444193 28.86618398 27.0576722 31 33 C31.38865234 34.04534912 31.38865234 34.04534912 31.78515625 35.11181641 C37.35447916 50.18867304 42.03956235 66.76348404 40 83 C38.23993783 86.78126116 37.55581089 87.74831205 33.6875 89.5 C29.08684662 90.12381741 27.74655037 89.73185965 24 87 C5.1140447 67.29092801 -4.69687931 36.31906882 -4.3359375 9.609375 C-3.8243103 5.63534049 -2.33871761 3.21573671 0 0 Z " fill="#EBEDDF" transform="translate(1708,201)"/>
<path d="M0 0 C12.49393868 9.26239276 12.49393868 9.26239276 13.87109375 16.3203125 C13.37109375 18.7578125 13.37109375 18.7578125 11.12109375 21.0078125 C1.54609628 27.10099271 -13.86262753 23.90998067 -24.47265625 21.7265625 C-41.99353683 17.79330359 -63.3193871 9.42412994 -75.60546875 -4.17578125 C-77.21084146 -7.41716355 -77.29492203 -10.65371261 -77.62890625 -14.2421875 C-49.85982244 -20.81058747 -24.00909186 -16.29840939 0 0 Z " fill="#EBEDDF" transform="translate(1950.62890625,169.2421875)"/>
<path d="M0 0 C3.11437326 15.7387077 3.82474315 30.17562946 -3 45 C-3.4242627 45.9492334 -3.84852539 46.8984668 -4.28564453 47.87646484 C-5.76998283 51.17953366 -7.28483206 54.4667575 -8.8125 57.75 C-9.54001465 59.33083374 -9.54001465 59.33083374 -10.28222656 60.94360352 C-14.68054245 70.12071995 -21.74343658 82.98129598 -31.9765625 86.72265625 C-35.54489483 87.21175199 -37.94090507 85.69949718 -41 84 C-45.7730228 76.94422716 -42.55317451 64.87879176 -41.09765625 57.0234375 C-36.81636635 36.27533344 -27.67176652 12.96507054 -10 0 C-6.29028313 -1.20565798 -3.75422616 -0.81967271 0 0 Z " fill="#EBEDDF" transform="translate(1787,110)"/>
<path d="M0 0 C0.77214844 0.00902344 1.54429687 0.01804688 2.33984375 0.02734375 C2.90832031 0.03894531 3.47679687 0.05054688 4.0625 0.0625 C3.91988409 1.93774747 3.77325143 3.81268964 3.625 5.6875 C3.54378906 6.73164063 3.46257813 7.77578125 3.37890625 8.8515625 C3.07475608 11.9381235 2.57238515 15.00318909 2.0625 18.0625 C6.6825 18.0625 11.3025 18.0625 16.0625 18.0625 C14.7425 22.6825 13.4225 27.3025 12.0625 32.0625 C6.1225 32.5575 6.1225 32.5575 0.0625 33.0625 C-0.8436435 39.41423935 -1.73439644 45.76787357 -2.61083984 52.1237793 C-2.91128296 54.28648255 -3.21595287 56.44860294 -3.52490234 58.61010742 C-3.96779298 61.71390212 -4.39553058 64.81946317 -4.8203125 67.92578125 C-4.96187775 68.89461746 -5.10344299 69.86345367 -5.2492981 70.86164856 C-5.36957367 71.7623558 -5.48984924 72.66306305 -5.61376953 73.59106445 C-5.72480011 74.38382278 -5.83583069 75.17658112 -5.95022583 75.99336243 C-6.12509965 78.37647067 -6.12509965 78.37647067 -3.9375 81.0625 C1.0125 80.5675 1.0125 80.5675 6.0625 80.0625 C6.76156942 81.66165881 7.44639468 83.26705045 8.125 84.875 C8.50785156 85.76832031 8.89070312 86.66164063 9.28515625 87.58203125 C10.0625 90.0625 10.0625 90.0625 9.0625 93.0625 C2.30935294 97.29560476 -5.16961331 97.98297212 -12.9375 97.0625 C-17.72144426 95.43937605 -20.14865115 93.24577328 -22.9375 89.0625 C-28.07042212 77.83653255 -23.73791515 63.59078876 -21.9375 51.875 C-21.64770165 49.94998042 -21.3586329 48.02485087 -21.0703125 46.09960938 C-20.36778577 41.41926166 -19.65538339 36.74051583 -18.9375 32.0625 C-21.9075 32.0625 -24.8775 32.0625 -27.9375 32.0625 C-27.2775 27.4425 -26.6175 22.8225 -25.9375 18.0625 C-22.6375 18.0625 -19.3375 18.0625 -15.9375 18.0625 C-14.6175 12.4525 -13.2975 6.8425 -11.9375 1.0625 C-4.0625 -0.0625 -4.0625 -0.0625 0 0 Z " fill="#EBEDDF" transform="translate(743.9375,170.9375)"/>
<path d="M0 0 C-1.06011283 8.08364781 -2.12331885 16.16688685 -3.1875 24.25 C-3.34517853 25.4488382 -3.50285706 26.64767639 -3.66531372 27.88284302 C-5.26481287 40.03531036 -6.86766896 52.18679394 -8.578125 64.32421875 C-8.69605911 65.16226044 -8.81399323 66.00030212 -8.9355011 66.86373901 C-9.47612793 70.69625745 -10.02256071 74.52784068 -10.5769043 78.35839844 C-10.7687929 79.70636947 -10.96061071 81.05435058 -11.15234375 82.40234375 C-11.31726318 83.54179443 -11.48218262 84.68124512 -11.65209961 85.85522461 C-11.99257129 88.93284963 -12.06333442 91.90653679 -12 95 C-10.35 95 -8.7 95 -7 95 C-6.01 101.435 -6.01 101.435 -5 108 C-11.35179906 111.24347186 -16.75278001 111.96527727 -23.75 110.375 C-26.88158993 108.4612506 -29.35667705 106.27400495 -31 103 C-31.89381991 97.62823791 -32.00441262 93.13925286 -31.24316406 87.70800781 C-31.15059326 87.0269548 -31.05802246 86.34590179 -30.96264648 85.64421082 C-30.65678193 83.4123642 -30.33636353 81.18287838 -30.015625 78.953125 C-29.79631012 77.3759142 -29.5778821 75.79857985 -29.36029053 74.22113037 C-28.78535353 70.07156893 -28.19790051 65.92387229 -27.60791016 61.77642822 C-27.01967858 57.62419942 -26.44416869 53.47021037 -25.8671875 49.31640625 C-23.66904623 33.53081948 -21.42388295 17.75272996 -19 2 C-16.58333333 1.66666667 -14.16666667 1.33333333 -11.75 1 C-11.00331055 0.89558594 -10.25662109 0.79117188 -9.48730469 0.68359375 C-6.27426189 0.24804411 -3.25092421 0 0 0 Z " fill="#EBEDDF" transform="translate(1062,157)"/>
<path d="M0 0 C1.74216797 0.04060547 1.74216797 0.04060547 3.51953125 0.08203125 C4.39996094 0.11683594 5.28039063 0.15164062 6.1875 0.1875 C4.94721762 6.35972879 3.29146411 12.25432122 1.1875 18.1875 C0.53523438 18.17847656 -0.11703125 18.16945312 -0.7890625 18.16015625 C-5.35502788 18.31504888 -8.88239791 18.49063951 -12.125 21.9375 C-19.42688836 32.60777757 -21.01188377 44.76065637 -22.5625 57.25 C-22.8718649 59.61849958 -23.18569325 61.98636796 -23.50079346 64.35411072 C-23.69327832 65.8126567 -23.88161912 67.27175766 -24.06512451 68.73146057 C-24.47776283 71.97032463 -25.01835259 75.01091037 -25.8125 78.1875 C-31.7525 78.1875 -37.6925 78.1875 -43.8125 78.1875 C-43.17746127 68.69118352 -42.1012683 59.33554147 -40.74609375 49.91796875 C-40.54538203 48.50170383 -40.34503601 47.08538704 -40.14503479 45.66902161 C-39.62423857 41.98778951 -39.09856466 38.30727097 -38.57177734 34.62689209 C-38.03246143 30.85260139 -37.49789192 27.07763864 -36.96289062 23.30273438 C-35.917334 15.93033252 -34.86617028 8.55874745 -33.8125 1.1875 C-28.5325 1.1875 -23.2525 1.1875 -17.8125 1.1875 C-17.4825 3.8275 -17.1525 6.4675 -16.8125 9.1875 C-16.090625 8.259375 -15.36875 7.33125 -14.625 6.375 C-10.54629194 1.13094679 -6.55643718 -0.19867991 0 0 Z " fill="#EBEDDF" transform="translate(1583.8125,187.8125)"/>
<path d="M0 0 C1.74216797 0.04060547 1.74216797 0.04060547 3.51953125 0.08203125 C4.39996094 0.11683594 5.28039062 0.15164062 6.1875 0.1875 C4.94721762 6.35972879 3.29146411 12.25432122 1.1875 18.1875 C0.53523438 18.17847656 -0.11703125 18.16945312 -0.7890625 18.16015625 C-5.35502788 18.31504888 -8.88239791 18.49063951 -12.125 21.9375 C-19.54511695 32.79327537 -21.03781533 45.11190222 -22.5625 57.8125 C-22.87148106 60.26265718 -23.18501924 62.71217815 -23.50079346 65.16146851 C-23.69386506 66.67111654 -23.88220442 68.1813796 -24.06512451 69.69229126 C-24.43274254 72.66584886 -24.86180552 75.33541655 -25.8125 78.1875 C-31.7525 78.1875 -37.6925 78.1875 -43.8125 78.1875 C-43.17746127 68.69118352 -42.1012683 59.33554147 -40.74609375 49.91796875 C-40.54538203 48.50170383 -40.34503601 47.08538704 -40.14503479 45.66902161 C-39.62423857 41.98778951 -39.09856466 38.30727097 -38.57177734 34.62689209 C-38.03246143 30.85260139 -37.49789192 27.07763864 -36.96289062 23.30273438 C-35.917334 15.93033252 -34.86617028 8.55874745 -33.8125 1.1875 C-28.5325 1.1875 -23.2525 1.1875 -17.8125 1.1875 C-17.4825 3.8275 -17.1525 6.4675 -16.8125 9.1875 C-16.090625 8.259375 -15.36875 7.33125 -14.625 6.375 C-10.54629194 1.13094679 -6.55643718 -0.19867991 0 0 Z " fill="#EBEDDF" transform="translate(449.8125,187.8125)"/>
<path d="M0 0 C1.17949219 0.01804688 2.35898438 0.03609375 3.57421875 0.0546875 C4.92966797 0.08949219 4.92966797 0.08949219 6.3125 0.125 C5.74184122 6.54491126 3.63905091 12.14089463 1.3125 18.125 C0.72082031 18.15078125 0.12914062 18.1765625 -0.48046875 18.203125 C-4.18455214 18.46899722 -7.09140874 18.82695437 -10.4375 20.5 C-17.08163736 28.25149359 -19.71417944 38.84997941 -20.94140625 48.76953125 C-21.10007423 49.98511971 -21.10007423 49.98511971 -21.26194763 51.2252655 C-21.5969402 53.79531882 -21.9241712 56.36627004 -22.25 58.9375 C-22.580014 61.52648983 -22.91177963 64.11520064 -23.24876404 66.70329285 C-23.45779165 68.30977401 -23.66270852 69.9167963 -23.86317444 71.52436829 C-24.57513017 77.01263017 -24.57513017 77.01263017 -25.6875 78.125 C-27.03017413 78.21131874 -28.37724322 78.23206473 -29.72265625 78.22265625 C-30.81525757 78.21890991 -30.81525757 78.21890991 -31.92993164 78.21508789 C-32.8605542 78.20598389 -33.79117676 78.19687988 -34.75 78.1875 C-36.34431725 78.17601129 -37.93863714 78.16488509 -39.53295898 78.15405273 C-41.61022949 78.13952637 -41.61022949 78.13952637 -43.6875 78.125 C-42.17977352 63.38625538 -40.20055078 48.71698763 -38.17358398 34.04174805 C-37.70956072 30.68221134 -37.25169048 27.32186505 -36.79521847 23.96129513 C-36.35556747 20.73278716 -35.90985942 17.50511594 -35.46484375 14.27734375 C-35.30128891 13.07029282 -35.13773407 11.86324188 -34.96922302 10.61961365 C-34.81558792 9.51658401 -34.66195282 8.41355438 -34.50366211 7.27709961 C-34.36979599 6.30324814 -34.23592987 5.32939667 -34.0980072 4.32603455 C-33.6875 2.125 -33.6875 2.125 -32.6875 1.125 C-30.15700598 1.05186433 -27.65445163 1.03252473 -25.125 1.0625 C-24.41408203 1.06701172 -23.70316406 1.07152344 -22.97070312 1.07617188 C-21.20959987 1.08799136 -19.44853964 1.10592737 -17.6875 1.125 C-17.3575 4.095 -17.0275 7.065 -16.6875 10.125 C-16.21699219 9.57070312 -15.74648437 9.01640625 -15.26171875 8.4453125 C-14.63910156 7.72085938 -14.01648437 6.99640625 -13.375 6.25 C-12.76011719 5.53070313 -12.14523437 4.81140625 -11.51171875 4.0703125 C-7.76900129 0.07914912 -5.2869275 -0.10469163 0 0 Z " fill="#EAEDDF" transform="translate(1333.6875,187.875)"/>
<path d="M0 0 C5.94 0 11.88 0 18 0 C17.39869479 9.81485273 16.36208303 19.41823089 14.93359375 29.1484375 C14.73280717 30.54084127 14.53246292 31.93330889 14.33253479 33.32583618 C13.8124926 36.93977194 13.28656486 40.5528257 12.75927734 44.16571045 C12.21932504 47.87296641 11.68512191 51.58105053 11.15039062 55.2890625 C10.10578875 62.52685213 9.05441671 69.76363245 8 77 C1.73 77 -4.54 77 -11 77 C-10.08062515 70.05158814 -9.15670113 63.10379976 -8.22900391 56.15649414 C-7.91565425 53.80541349 -7.60343392 51.45418198 -7.29248047 49.1027832 C-5.12087859 32.689268 -2.69789707 16.33539452 0 0 Z " fill="#EBEDDF" transform="translate(463,189)"/>
<path d="M0 0 C5.94 0 11.88 0 18 0 C17.36496127 9.49631648 16.2887683 18.85195853 14.93359375 28.26953125 C14.73288203 29.68579617 14.53253601 31.10211296 14.33253479 32.51847839 C13.81173857 36.19971049 13.28606466 39.88022903 12.75927734 43.56060791 C12.21996143 47.33489861 11.68539192 51.10986136 11.15039062 54.88476562 C10.104834 62.25716748 9.05367028 69.62875255 8 77 C1.73 77 -4.54 77 -11 77 C-10.05828124 69.99719846 -9.11629116 62.99443348 -8.17407227 55.99169922 C-7.8549911 53.61996394 -7.53597829 51.24821947 -7.21704102 48.87646484 C-6.44611418 43.14368293 -5.67413873 37.41104688 -4.89990234 31.67871094 C-4.30619763 27.28163782 -3.71843949 22.88383155 -3.13525391 18.48535156 C-2.86754929 16.48241703 -2.59981023 14.4794871 -2.33203125 12.4765625 C-2.2115593 11.55805511 -2.09108734 10.63954773 -1.96696472 9.69320679 C-1.85387466 8.85166046 -1.74078461 8.01011414 -1.62426758 7.14306641 C-1.5272908 6.41133209 -1.43031403 5.67959778 -1.33039856 4.9256897 C-1 3 -1 3 0 0 Z " fill="#EBEDDF" transform="translate(838,189)"/>
<path d="M0 0 C3.125 1.3125 3.125 1.3125 5 4 C5.88260272 9.16839432 5.87656817 13.4660057 3.25 18.0625 C-0.1579545 20.99712748 -1.89504511 21.89954956 -6.4375 22.3125 C-10.25656107 21.97749464 -12.02926723 21.37658622 -15 19 C-17.362577 15.21826412 -17.13779347 12.48437514 -16.55078125 8.19140625 C-15.76713199 5.07348261 -14.28384549 3.21463805 -12 1 C-8.27839655 -0.86080173 -4.06171519 -0.42083705 0 0 Z " fill="#EBEDDF" transform="translate(856,152)"/>
<path d="M0 0 C5.28229866 0.06166107 5.28229866 0.06166107 8.3125 1.9375 C10.748801 6.14565628 10.88380365 9.17393883 10.0625 13.9375 C8.26839304 18.34121708 5.87238513 20.22005744 1.6875 22.3125 C-3.26016914 22.68590899 -6.42342983 22.53487243 -10.3125 19.3125 C-12.60601939 15.66371915 -12.5670901 12.3833724 -11.93359375 8.24609375 C-10.91964991 5.08947614 -8.81159606 3.37425425 -6.3125 1.3125 C-4.58665266 -0.41334734 -2.35040633 0.0591493 0 0 Z " fill="#EBEDDF" transform="translate(476.3125,151.6875)"/>
<path d="M0 0 C3.24990184 5.60283076 2.72716319 11.74735985 1.34765625 17.91796875 C-0.69863679 24.28518959 -3.56829305 28.99238327 -9 33 C-10.485 33.495 -10.485 33.495 -12 34 C-14.58652042 31.41347958 -14.327265 30.29149257 -14.375 26.6875 C-14.23210698 17.5533386 -11.42122781 8.96053091 -7 1 C-4.53721199 -0.231394 -2.7204945 -0.07159196 0 0 Z " fill="#EBEDDF" transform="translate(286,7)"/>
</svg>
